<svg xmlns="http://www.w3.org/2000/svg" xmlns:xlink="http://www.w3.org/1999/xlink" viewBox="0 0 80 80" fill="#18181a">
  <path d="M22 3C18.945313 3 16.074219 3.808594 13.59375 5.21875L14.582031 6.960938C16.773438 5.710938 19.296875 5 22 5C30.296875 5 37 11.703125 37 20C37 28.296875 30.296875 35 22 35C13.703125 35 7 28.296875 7 20C7 17.136719 7.808594 14.472656 9.199219 12.199219L11 14L12 8L6 9L7.75 10.75C6.015625 13.414063 5 16.589844 5 20C5 24.695313 6.914063 28.949219 10 32.03125L10 65C10 67.75 12.25 70 15 70L65 70C67.75 70 70 67.75 70 65L70 15C70 12.25 67.75 10 65 10L58 10L58 7C58 5.90625 57.09375 5 56 5L54 5C52.90625 5 52 5.90625 52 7L52 10L35.71875 10C32.625 5.765625 27.636719 3 22 3 Z M 54 7L56 7L56 15L54 15 Z M 27.167969 10.445313L22.125 18.003906C22.085938 18.003906 22.042969 18 22 18C20.894531 18 20 18.894531 20 20C20 21.105469 20.894531 22 22 22C22.175781 22 22.347656 21.976563 22.515625 21.933594L27.292969 26.707031L28.707031 25.292969L23.929688 20.515625C23.976563 20.347656 24 20.175781 24 20C24 19.691406 23.929688 19.390625 23.792969 19.113281L28.832031 11.554688 Z M 36.992188 12L52 12L52 15C52 16.09375 52.90625 17 54 17L56 17C57.09375 17 58 16.09375 58 15L58 12L65 12C66.667969 12 68 13.332031 68 15L68 22L38.871094 22C38.949219 21.34375 39 20.679688 39 20C39 17.109375 38.269531 14.386719 36.992188 12 Z M 38.503906 24L68 24L68 65C68 66.667969 66.667969 68 65 68L15 68C13.332031 68 12 66.667969 12 65L12 33.71875C14.808594 35.773438 18.257813 37 22 37C29.996094 37 36.699219 31.449219 38.503906 24 Z M 40 32C39.449219 32 39 32.449219 39 33C39 33.550781 39.449219 34 40 34C40.550781 34 41 33.550781 41 33C41 32.449219 40.550781 32 40 32 Z M 44 32C43.449219 32 43 32.449219 43 33C43 33.550781 43.449219 34 44 34C44.550781 34 45 33.550781 45 33C45 32.449219 44.550781 32 44 32 Z M 48 32C47.449219 32 47 32.449219 47 33C47 33.550781 47.449219 34 48 34C48.550781 34 49 33.550781 49 33C49 32.449219 48.550781 32 48 32 Z M 52 32C51.449219 32 51 32.449219 51 33C51 33.550781 51.449219 34 52 34C52.550781 34 53 33.550781 53 33C53 32.449219 52.550781 32 52 32 Z M 56 32C55.449219 32 55 32.449219 55 33C55 33.550781 55.449219 34 56 34C56.550781 34 57 33.550781 57 33C57 32.449219 56.550781 32 56 32 Z M 40 36C39.449219 36 39 36.449219 39 37C39 37.550781 39.449219 38 40 38C40.550781 38 41 37.550781 41 37C41 36.449219 40.550781 36 40 36 Z M 48 36C47.449219 36 47 36.449219 47 37C47 37.550781 47.449219 38 48 38C48.550781 38 49 37.550781 49 37C49 36.449219 48.550781 36 48 36 Z M 56 36C55.449219 36 55 36.449219 55 37C55 37.550781 55.449219 38 56 38C56.550781 38 57 37.550781 57 37C57 36.449219 56.550781 36 56 36 Z M 24 40C23.449219 40 23 40.449219 23 41C23 41.550781 23.449219 42 24 42C24.550781 42 25 41.550781 25 41C25 40.449219 24.550781 40 24 40 Z M 28 40C27.449219 40 27 40.449219 27 41C27 41.550781 27.449219 42 28 42C28.550781 42 29 41.550781 29 41C29 40.449219 28.550781 40 28 40 Z M 32 40C31.449219 40 31 40.449219 31 41C31 41.550781 31.449219 42 32 42C32.550781 42 33 41.550781 33 41C33 40.449219 32.550781 40 32 40 Z M 36 40C35.449219 40 35 40.449219 35 41C35 41.550781 35.449219 42 36 42C36.550781 42 37 41.550781 37 41C37 40.449219 36.550781 40 36 40 Z M 40 40C39.449219 40 39 40.449219 39 41C39 41.550781 39.449219 42 40 42C40.550781 42 41 41.550781 41 41C41 40.449219 40.550781 40 40 40 Z M 44 40C43.449219 40 43 40.449219 43 41C43 41.550781 43.449219 42 44 42C44.550781 42 45 41.550781 45 41C45 40.449219 44.550781 40 44 40 Z M 48 40C47.449219 40 47 40.449219 47 41C47 41.550781 47.449219 42 48 42C48.550781 42 49 41.550781 49 41C49 40.449219 48.550781 40 48 40 Z M 52 40C51.449219 40 51 40.449219 51 41C51 41.550781 51.449219 42 52 42C52.550781 42 53 41.550781 53 41C53 40.449219 52.550781 40 52 40 Z M 56 40C55.449219 40 55 40.449219 55 41C55 41.550781 55.449219 42 56 42C56.550781 42 57 41.550781 57 41C57 40.449219 56.550781 40 56 40 Z M 24 44C23.449219 44 23 44.449219 23 45C23 45.550781 23.449219 46 24 46C24.550781 46 25 45.550781 25 45C25 44.449219 24.550781 44 24 44 Z M 32 44C31.449219 44 31 44.449219 31 45C31 45.550781 31.449219 46 32 46C32.550781 46 33 45.550781 33 45C33 44.449219 32.550781 44 32 44 Z M 40 44C39.449219 44 39 44.449219 39 45C39 45.550781 39.449219 46 40 46C40.550781 46 41 45.550781 41 45C41 44.449219 40.550781 44 40 44 Z M 48 44C47.449219 44 47 44.449219 47 45C47 45.550781 47.449219 46 48 46C48.550781 46 49 45.550781 49 45C49 44.449219 48.550781 44 48 44 Z M 56 44C55.449219 44 55 44.449219 55 45C55 45.550781 55.449219 46 56 46C56.550781 46 57 45.550781 57 45C57 44.449219 56.550781 44 56 44 Z M 24 48C23.449219 48 23 48.449219 23 49C23 49.550781 23.449219 50 24 50C24.550781 50 25 49.550781 25 49C25 48.449219 24.550781 48 24 48 Z M 28 48C27.449219 48 27 48.449219 27 49C27 49.550781 27.449219 50 28 50C28.550781 50 29 49.550781 29 49C29 48.449219 28.550781 48 28 48 Z M 32 48C31.449219 48 31 48.449219 31 49C31 49.550781 31.449219 50 32 50C32.550781 50 33 49.550781 33 49C33 48.449219 32.550781 48 32 48 Z M 36 48C35.449219 48 35 48.449219 35 49C35 49.550781 35.449219 50 36 50C36.550781 50 37 49.550781 37 49C37 48.449219 36.550781 48 36 48 Z M 40 48C39.449219 48 39 48.449219 39 49C39 49.550781 39.449219 50 40 50C40.550781 50 41 49.550781 41 49C41 48.449219 40.550781 48 40 48 Z M 44 48C43.449219 48 43 48.449219 43 49C43 49.550781 43.449219 50 44 50C44.550781 50 45 49.550781 45 49C45 48.449219 44.550781 48 44 48 Z M 48 48C47.449219 48 47 48.449219 47 49C47 49.550781 47.449219 50 48 50C48.550781 50 49 49.550781 49 49C49 48.449219 48.550781 48 48 48 Z M 52 48C51.449219 48 51 48.449219 51 49C51 49.550781 51.449219 50 52 50C52.550781 50 53 49.550781 53 49C53 48.449219 52.550781 48 52 48 Z M 56 48C55.449219 48 55 48.449219 55 49C55 49.550781 55.449219 50 56 50C56.550781 50 57 49.550781 57 49C57 48.449219 56.550781 48 56 48 Z M 24 52C23.449219 52 23 52.449219 23 53C23 53.550781 23.449219 54 24 54C24.550781 54 25 53.550781 25 53C25 52.449219 24.550781 52 24 52 Z M 32 52C31.449219 52 31 52.449219 31 53C31 53.550781 31.449219 54 32 54C32.550781 54 33 53.550781 33 53C33 52.449219 32.550781 52 32 52 Z M 40 52C39.449219 52 39 52.449219 39 53C39 53.550781 39.449219 54 40 54C40.550781 54 41 53.550781 41 53C41 52.449219 40.550781 52 40 52 Z M 48 52C47.449219 52 47 52.449219 47 53C47 53.550781 47.449219 54 48 54C48.550781 54 49 53.550781 49 53C49 52.449219 48.550781 52 48 52 Z M 56 52C55.449219 52 55 52.449219 55 53C55 53.550781 55.449219 54 56 54C56.550781 54 57 53.550781 57 53C57 52.449219 56.550781 52 56 52 Z M 24 56C23.449219 56 23 56.449219 23 57C23 57.550781 23.449219 58 24 58C24.550781 58 25 57.550781 25 57C25 56.449219 24.550781 56 24 56 Z M 28 56C27.449219 56 27 56.449219 27 57C27 57.550781 27.449219 58 28 58C28.550781 58 29 57.550781 29 57C29 56.449219 28.550781 56 28 56 Z M 32 56C31.449219 56 31 56.449219 31 57C31 57.550781 31.449219 58 32 58C32.550781 58 33 57.550781 33 57C33 56.449219 32.550781 56 32 56 Z M 36 56C35.449219 56 35 56.449219 35 57C35 57.550781 35.449219 58 36 58C36.550781 58 37 57.550781 37 57C37 56.449219 36.550781 56 36 56 Z M 40 56C39.449219 56 39 56.449219 39 57C39 57.550781 39.449219 58 40 58C40.550781 58 41 57.550781 41 57C41 56.449219 40.550781 56 40 56 Z M 44 56C43.449219 56 43 56.449219 43 57C43 57.550781 43.449219 58 44 58C44.550781 58 45 57.550781 45 57C45 56.449219 44.550781 56 44 56 Z M 48 56C47.449219 56 47 56.449219 47 57C47 57.550781 47.449219 58 48 58C48.550781 58 49 57.550781 49 57C49 56.449219 48.550781 56 48 56 Z M 52 56C51.449219 56 51 56.449219 51 57C51 57.550781 51.449219 58 52 58C52.550781 58 53 57.550781 53 57C53 56.449219 52.550781 56 52 56 Z M 56 56C55.449219 56 55 56.449219 55 57C55 57.550781 55.449219 58 56 58C56.550781 58 57 57.550781 57 57C57 56.449219 56.550781 56 56 56Z" fill="#18181a" />
</svg>